<?xml version="1.0" encoding="UTF-8"?>
<svg id="Layer_1" data-name="Layer 1" xmlns="http://www.w3.org/2000/svg" viewBox="0 0 134.4 173.86">
  <defs>
    <style>
      .cls-1 {
        fill: #909090;
      }

      .cls-2 {
        fill: #939393;
      }

      .cls-3 {
        fill: gray;
      }

      .cls-4 {
        fill: #727272;
      }

      .cls-5 {
        fill: #707070;
      }

      .cls-6 {
        fill: #828282;
      }

      .cls-7 {
        fill: #767676;
      }

      .cls-8 {
        fill: #7a7a7a;
      }

      .cls-9 {
        fill: #454545;
      }

      .cls-10 {
        fill: #a1a1a1;
      }

      .cls-11 {
        fill: #969696;
      }

      .cls-12 {
        fill: #a9a8a9;
      }

      .cls-13 {
        fill: #807f7f;
      }

      .cls-14 {
        fill: #757575;
      }

      .cls-15 {
        fill: #a0a0a0;
      }

      .cls-16 {
        fill: #797979;
      }

      .cls-17 {
        fill: #9e9d9e;
      }

      .cls-18 {
        fill: #6f6f6f;
      }

      .cls-19 {
        fill: #7d7d7d;
      }

      .cls-20 {
        fill: #bababa;
      }

      .cls-21 {
        fill: #818181;
      }

      .cls-22 {
        fill: #7e7e7e;
      }

      .cls-23 {
        fill: #878787;
      }

      .cls-24 {
        fill: #858585;
      }

      .cls-25 {
        fill: #8b8b8b;
      }

      .cls-26 {
        fill: #747474;
      }

      .cls-27 {
        fill: #8a8a8a;
      }

      .cls-28 {
        fill: #838383;
      }

      .cls-29 {
        fill: #7f7f7f;
      }

      .cls-30 {
        fill: #8c8c8c;
      }

      .cls-31 {
        fill: #6e6e6e;
      }

      .cls-32 {
        fill: #989898;
      }

      .cls-33 {
        fill: #787878;
      }

      .cls-34 {
        fill: #535353;
      }

      .cls-35 {
        fill: #888;
      }

      .cls-36 {
        fill: #898989;
      }

      .cls-37 {
        fill: #7b7b7b;
      }
    </style>
  </defs>
  <path class="cls-25" d="M63.16.48h2.3c6.16.12,11.2,1.39,16.64,4.38v2c1.98.66,3.96,1.32,6,2v2h2l-1,3c-.39-.44-.77-.89-1.16-1.34-2.24-2.03-4.45-3.06-7.21-4.29-.94-.43-1.87-.85-2.84-1.29-7.03-2.74-15.72-3.59-23.02-1.43-5.17,3-6.97,8.3-8.84,13.73-2.11,8.12-3.72,19.45-.94,27.61,1.28.74,2.61,1.41,4,2,.66.99,1.32,1.98,2,3,.99.45,1.98.91,3,1.38,2,1.08,3.46,2.52,4.38,4.31.21.76.41,1.53.62,2.31-1.98.33-3.98.66-6,1v-2c-.93-.13-1.86-.25-2.81-.38-2.13-.41-4.19-1.29-6.19-2.62-.23.57-.46,1.14-.69,1.73-2.16,3.75-5.6,6.11-8.9,8.86-2.61,2.62-3.81,5.11-5.41,8.41-.99.66-1.99,1.33-3,2-1.56,3.25-2.8,6.39-3.91,9.82-1.15,3.36-2.55,6.55-3.96,9.8-6.46,15.72-7.81,32.55-8.89,49.35-.15,1.35-.56,2.69-1.23,4.02-.39,2.54-.74,5.07-1.06,7.62-.09.71-.18,1.41-.28,2.14-.22,1.74-.44,3.49-.66,5.23,3.06-2.98,5.82-6,8.44-9.38,1.19-1.39,2.37-2.6,3.56-3.62,2.29,0,4.29.33,6,1,.66-1.32,1.33-2.65,2-4h3v2h8c-.13,1.25-.46,2.59-1,4-2.92,1.67-4.81,2-8.19,1.94-.93.02-1.86.04-2.81.06-.66.99-1.32,1.98-2,3h-3v-3c-2.66,2.52-4.9,4.84-6.88,7.94-2.52,3.63-5.34,6.72-9.12,9.06H.1c.87-29.84,3.2-51.17,7-64,.32-1.48.63-2.96.94-4.44,1.47-6.71,4.02-12.67,7.16-18.76.66-1.27,1.29-2.72,1.9-4.37,1.37-3.34,3.17-6.33,5-9.44h2c.28-.58.55-1.16.84-1.76,3.87-7.49,8.94-12.01,16.16-16.24-.5-2.01-1.01-4.02-1.57-6.02-3.42-13.76-.86-27.56,5.57-39.98,2.22-2.72,4-4.08,7-6,3.73-2.49,6.73-2.38,11.06-2.38v.04Z"/>
  <path class="cls-5" d="M92.1,33.86c1.84,1.12,3.67,2.24,5.5,3.38,1.02.63,2.04,1.25,3.09,1.9.79.57,1.59,1.14,2.41,1.73v2c.78.25,1.57.49,2.38.75,2.95,1.4,3.53,2.26,4.62,5.25h2c1.33,2,2,4,2,6,.64.25,1.28.5,1.94.75,1.37.83,2.25,1.94,2.62,3.31.14.64.29,1.28.44,1.94l3,1c.76,1.95,1.51,3.9,2.18,5.89.55,1.57,1.49,3.28,2.82,5.11,6.76,10.14,8.41,23.53,6.64,35.41-2.06,7.89-8.27,14.56-14.95,19.03-.89.52-1.77,1.03-2.69,1.56-.74.58-1.49,1.15-2.25,1.75-1.17.83-2.42,1.25-3.75,1.25-.66,1.65-1.32,3.3-2,5h-2v9h4c1.33,2,2,4.33,2,7-3.3.66-6.63,1.33-10,2l-1-4h2c-.09-1.73-.2-3.46-.31-5.19-.06-.96-.12-1.93-.18-2.92-.22-1.97-.9-3.73-2.04-5.3-1.95-3.44-1.77-5.98-1.66-9.91.03-1.25.05-2.51.08-3.8.03-.95.07-1.91.11-2.89,1.32.33,2.64.66,4,1v5c1.65-.66,3.32-1.33,5-2v-2c1.05-.56,2.1-1.11,3.19-1.69,6.04-3.52,9.35-7.19,11.31-13.91,1.36-6.53.63-12.1-1.5-18.4-.27-.88-.54-1.77-.81-2.68-2.07-6.65-4.72-12.68-8.02-18.82-.78-1.67-1.17-3.5-1.17-5.5h-2c-2.5-2.66-3.9-4.69-5-8.19-.46-1.94-1.44-3.25-2.94-3.94-.68-.29-1.36-.58-2.06-.88-2-2.29-3-4.29-3-6h-2c-1.08-.79-2.08-1.79-3-3-.17-1.75-.17-3.41,0-5l1-1h0Z"/>
  <path class="cls-35" d="M4.1,123.86c.43.45.87.91,1.31,1.38,1.2,1.22,2.76,2.43,4.69,3.62.17,1.29.21,2.72.11,4.28-.05.84-.1,1.68-.15,2.55-.07.88-.14,1.76-.21,2.67-.05.88-.11,1.76-.16,2.67-.29,4.34-.82,7.28-1.59,8.83-.39,2.54-.74,5.07-1.06,7.62-.09.71-.18,1.41-.28,2.14-.22,1.74-.44,3.49-.66,5.23,3.06-2.98,5.82-6,8.44-9.38,1.19-1.39,2.37-2.6,3.56-3.62,2.29,0,4.29.33,6,1l2-4h3v2h8c-.13,1.25-.46,2.59-1,4-2.92,1.67-4.81,2-8.19,1.94-.93.02-1.86.04-2.81.06-.66.99-1.32,1.98-2,3h-3v-3c-2.66,2.52-4.9,4.84-6.88,7.94-2.52,3.63-5.34,6.72-9.12,9.06H.1c.36-12.48.74-24.95,2-37.38.08-.82.17-1.64.25-2.48.37-3.46.85-6.78,1.75-10.15v.02Z"/>
  <path class="cls-26" d="M120.1,116.86l1,2c.99-.33,1.98-.66,3-1-.84,4.36-1.31,6.46-4.88,9.25-1.03.58-2.06,1.15-3.12,1.75-.74.58-1.49,1.15-2.25,1.75-1.17.83-2.42,1.25-3.75,1.25-.66,1.65-1.33,3.32-2,5h-2v9h4c1.33,2,2,4.33,2,7-3.3.66-6.6,1.32-10,2l-1-4h2c-.09-1.73-.2-3.46-.31-5.19-.06-.96-.12-1.93-.18-2.92-.22-1.97-.9-3.73-2.04-5.3-1.95-3.44-1.77-5.98-1.66-9.91.03-1.25.05-2.52.08-3.8.03-.95.07-1.91.11-2.89l4,1v5c1.65-.66,3.3-1.32,5-2v-2c4.56-2.76,6.66-4,12-4v-2h0Z"/>
  <path class="cls-14" d="M121.1,18.86c.92,1.29,1.59,2.63,2,4-1.35,2.71-2.63,2.78-5.44,3.81-4.69,1.79-9.09,3.9-13.53,6.23-1.35.63-2.7.95-4.03.95v2l-5-1c-.67-2-.67-4,0-6,1.71-.79,3.37-1.46,5-2v-2h-8c-.66-1.32-1.32-2.64-2-4,.72-.06,1.43-.11,2.17-.17,3.23-.25,6.47-.51,9.7-.77,1.13-.09,2.26-.17,3.42-.26,1.08-.09,2.15-.17,3.26-.26l3.02-.24c5.01-.61,8.16-.71,9.43-.3h0Z"/>
  <path class="cls-22" d="M18.1,81.86h4c.43,5.17-.25,8.22-2.83,12.71-3.38,6.62-4.92,13.28-6.23,20.54-.32,1.76-.64,3.51-.97,5.27-.14.77-.28,1.53-.42,2.32-.57,2.27-1.43,4.12-2.55,6.16-1.32-.33-2.64-.66-4-1-.21-6.43-.05-11.84,2-18,.33-1.48.64-2.96.94-4.44,1.55-7.11,3.83-16.41,10.06-20.56v-3h0Z"/>
  <path class="cls-24" d="M65.1,132.86l4,1c1.85,5.47,2.25,10.19,2.12,15.94,0,.78-.02,1.56-.03,2.36-.02,1.9-.06,3.8-.1,5.7,1.65.33,3.3.66,5,1l-1,5c-1.87.75-3.87,1.41-6,2-.99-.66-1.98-1.32-3-2-.17-1.67-.21-3.48-.12-5.44.13-3.32.18-5.39-.88-8.56-.08-1.34-.11-2.67-.1-4.01v-2.29c0-.79.02-1.57.03-2.38,0-.8,0-1.59.01-2.42.01-1.97.03-3.93.05-5.9h.02Z"/>
  <path class="cls-23" d="M78.16,2.86c1.33.64,2.65,1.29,3.94,2v2c1.98.66,3.96,1.32,6,2v2h2l-1,3c-.39-.44-.77-.89-1.16-1.34-2.24-2.03-4.45-3.06-7.21-4.29-.94-.43-1.87-.85-2.84-1.29-7.03-2.74-15.72-3.59-23.02-1.43-6.16,3.57-7.74,10.94-9.77,17.34l-4-2c2.34-7.61,4.53-14.02,11.23-18.82,7.79-3.31,18.1-2.24,25.83.82h0Z"/>
  <path class="cls-17" d="M26.1,148.86h3v2h8c-.13,1.25-.46,2.59-1,4-2.92,1.67-4.81,2-8.19,1.94-.93.02-1.86.04-2.81.06-.66.99-1.33,1.99-2,3h-3v-3c-.76.76-1.53,1.53-2.31,2.31l-5.69,5.69c-.66-1.32-1.32-2.64-2-4,2.48-3.22,4.96-6.3,8-9,2.33-.04,4.33.29,6,1l2-4Z"/>
  <path class="cls-22" d="M92.1,33.86c1.84,1.12,3.67,2.24,5.5,3.38,1.02.63,2.04,1.25,3.09,1.9.79.57,1.59,1.14,2.41,1.73v2c1.65.66,3.32,1.33,5,2l-3,1,1,3c-.63,1.46-1.29,2.79-2,4l-1-2c-.62-.29-1.25-.58-1.88-.88-2.52-1.34-3.62-2.72-5.12-5.12v-2h-2c-1.08-.79-2.08-1.79-3-3-.17-1.75-.17-3.41,0-5l1-1h0Z"/>
  <path class="cls-13" d="M45.1,48.86c3.29,1.13,6.26,2.62,9.25,4.38.69.4,1.37.8,2.08,1.21,2.01,1.7,2.3,2.85,2.67,5.41-1.98.33-3.96.66-6,1v-2c-.91-.12-1.82-.25-2.75-.38-2.84-.55-4.78-1.2-7.25-2.62.59-3.17,1.25-5.5,2-7Z"/>
  <path class="cls-6" d="M68.1,148.86h2c.33,2.97.66,5.94,1,9,1.65.33,3.3.66,5,1-.33,1.65-.66,3.3-1,5-1.87.75-3.87,1.41-6,2-.99-.66-1.98-1.32-3-2,.14-2.31.29-4.63.44-6.94.08-1.29.16-2.58.25-3.9.21-2.11.65-3.49,1.32-4.16h-.01Z"/>
  <path class="cls-11" d="M104.1,135.86l4,1h-2v9h4c1.33,2,2,4.33,2,7-3.3.66-6.6,1.32-10,2-.33-1.32-.66-2.64-1-4h2c0-.6-.02-1.21-.04-1.83,0-.8-.02-1.6-.03-2.42,0-.79-.02-1.58-.04-2.39.09-2.27.5-4.17,1.1-6.36v-2h0Z"/>
  <path class="cls-1" d="M42.1,46.86l6,1v3c-.99-.66-1.98-1.32-3-2,.06,1.28.12,2.56.19,3.88-.61,6.35-5.24,9.42-9.82,13.25-.78.62-1.56,1.23-2.37,1.87l-2-1v-2l-2-1c1.44-1.13,2.87-2.25,4.31-3.38.8-.63,1.6-1.25,2.43-1.9,1.71-1.3,3.47-2.53,5.26-3.73.39-1.31.62-2.68.69-4.12.1-1.28.21-2.56.31-3.88h0Z"/>
  <path class="cls-20" d="M55.1.86c12.23-.51,21.23.82,27,4v2c1.98.66,3.96,1.32,6,2v2h2c-.33.99-.66,1.98-1,3-.39-.44-.79-.89-1.19-1.34-6.65-6.1-16.17-7.65-24.81-8.66V1.86h-8V.86Z"/>
  <path class="cls-27" d="M4.1,123.86c.43.45.87.91,1.31,1.38,1.2,1.22,2.76,2.43,4.69,3.62-.33,3.3-.66,6.6-1,10l-1-2c-2.19.5-3.85,1.83-5,4-1.08-4.08-.83-7.18-.06-11.31.19-1.07.39-2.14.59-3.24.16-.81.31-1.62.47-2.45Z"/>
  <path class="cls-36" d="M121.1,18.86c.92,1.29,1.59,2.63,2,4-1.4,2.79-2.99,2.96-5.88,4.06-.88.34-1.77.68-2.68,1.04-1.8.67-3.62,1.29-5.45,1.9-.33-1.32-.66-2.64-1-4,2.65-1.08,5.28-2.09,8-3v-3c-.66-.33-1.32-.66-2-1,2.74-1.37,4.12-.94,7,0h0Z"/>
  <path class="cls-16" d="M99.1,120.86l4,1v5c1.65-.66,3.3-1.32,5-2-.66,1.32-1.32,2.64-2,4h-3l-2,4,2,2c-.25,1.41-.59,2.75-1,4-1.33-.67-2.33-2-3-4-.07-2.39-.08-4.79-.06-7.19,0-1.27.02-2.54.03-3.86.01-.98.02-1.95.04-2.96h-.01Z"/>
  <path class="cls-8" d="M90.1,20.86c1.77-.03,3.54-.05,5.31-.06.99,0,1.97-.02,2.99-.04,1.8.07,3.7.43,5.7,1.1-.33,2.97-.66,5.94-1,9-2-2.5-3-4.5-3-6h-8s-2-4-2-4Z"/>
  <path class="cls-7" d="M105.1,45.86c1.65.33,3.3.66,5,1v2l2,1c-1.32,2.31-2.64,4.62-4,7h-3c-1.05-3.98-.84-6.98,0-11Z"/>
  <path class="cls-21" d="M66.1,17.86c2.31.66,4.62,1.32,7,2-.33,1.65-.66,3.3-1,5-1.21.41-2.54.75-4,1-.99-.66-1.98-1.32-3-2-.17-1.71-.17-3.37,0-5l1-1Z"/>
  <path class="cls-30" d="M27.1,149.86c3.3.33,6.6.66,10,1l-1,4c-2.76,1.38-4.95,1.19-8,1-.66-.66-1.32-1.32-2-2l1-4Z"/>
  <path class="cls-33" d="M42.1,19.86l2,1c.05,1.62.09,3.25.12,4.88.02.9.05,1.81.07,2.74-.13,1.59-.87,3.05-2.2,4.38l-2-1c-.05-1.44-.09-2.87-.12-4.31-.02-.8-.05-1.6-.07-2.43.13-1.51.87-3.26,2.2-5.26Z"/>
  <path class="cls-31" d="M68.1,148.86h2c1.16,3.47,1.07,6.36,1,10-1.32.66-2.65,1.33-4,2-1.36-4.08-.68-6.76,0-11l1-1Z"/>
  <path class="cls-34" d="M103.1,127.86h2v16c-3.15-4.2-3.12-4.33-3-9-.66-.99-1.32-1.98-2-3h2l1-4Z"/>
  <path class="cls-10" d="M55.1.86c2.77-.08,5.54-.14,8.31-.19.79-.03,1.57-.05,2.38-.08.76,0,1.51-.02,2.29-.03.69-.01,1.4-.03,2.11-.05,1.27.23,2.9,1.34,4.9,3.34h-12V1.85h-8V.85h.01Z"/>
  <path class="cls-21" d="M1.1,160.86h1v6h2c.33,1.98.66,3.96,1,6-1.65.33-3.3.66-5,1-.03-1.42-.05-2.83-.06-4.25-.01-.79-.02-1.58-.04-2.39.09-2.27.47-4.19,1.1-6.36Z"/>
  <path class="cls-37" d="M71.1,142.86v9c-.33-.99-.66-1.98-1-3-1.55.64-2.89,1.97-4,4v-9c1.33-.67,3-1,5-1Z"/>
  <path class="cls-7" d="M5.1,136.86h3c.33,1.98.66,3.96,1,6-1.98.66-3.96,1.32-6,2,.59-4.59,1.25-7.25,2-8Z"/>
  <path class="cls-2" d="M2.1,140.86l2,3c1.65-.33,3.3-.66,5-1-.33,2.31-.66,4.62-1,7-1.32-.99-2.64-1.98-4-3-.66.33-1.33.66-2,1v-7Z"/>
  <path class="cls-33" d="M42.1,39.86c1.33,2,2,4.33,2,7h-2v4h-2c-.33-2.31-.66-4.62-1-7h3v-4Z"/>
  <path class="cls-7" d="M120.1,18.86c.99.66,1.98,1.32,3,2-.33,1.32-.66,2.64-1,4-2.31.33-4.62.66-7,1,.33-.62.66-1.24,1-1.88.76-1.36,1.09-2.73,1-4.12.99-.33,1.98-.66,3-1Z"/>
  <path class="cls-12" d="M26.1,148.86c.99.33,1.98.66,3,1h-2c.18,1.63.51,3.29,1,5,.99.66,1.98,1.32,3,2-.95-.04-1.9-.08-2.88-.12-2.15-.15-3.86.56-5.12,2.12-.46-1.54-.79-3.21-1-5,.92-1.13,1.92-2.13,3-3l1-2Z"/>
  <path class="cls-32" d="M15.1,156.86c.99.33,1.98.66,3,1-1.65,2.31-3.32,4.65-5,7-.99-.99-1.98-1.98-3-3l5-5Z"/>
  <path class="cls-5" d="M11.1,104.86h3c-1.25,3.17-2.25,5.5-3,7-1.37.41-2.71.75-4,1,.6-3.34,1.68-5.5,4-8Z"/>
  <path class="cls-8" d="M74.1,158.86l-2,4h-2c-1.34.31-2.67.65-4,1,.17-1.25.5-2.59,1-4,2.91-2.03,3.53-2.16,7-1Z"/>
  <path class="cls-18" d="M18.1,81.86h4c-.33,1.98-.66,3.96-1,6-1.98.33-3.96.66-6,1v-2c.99-.66,1.98-1.32,3-2v-3Z"/>
  <path class="cls-3" d="M13.1,101.86h2v3h-4l-2,4h-2c.33-1.65.66-3.3,1-5h5v-2Z"/>
  <path class="cls-35" d="M42.1,46.86l6,1v3c-.99-.66-1.98-1.32-3-2-.66,1.32-1.32,2.64-2,4l-2-2c.25-1.41.59-2.75,1-4Z"/>
  <path class="cls-23" d="M99.1,127.86c2.75,4.13,3.96,7.22,3.62,9.25-.21.58-.41,1.15-.62,1.75-1.33-.67-2.33-2-3-4-.04-2.33-.04-4.67,0-7Z"/>
  <path class="cls-19" d="M25.1,73.86v5h-5c.25-1.29.59-2.63,1-4,1.33-.67,2.67-1,4-1Z"/>
  <path class="cls-15" d="M90.1,20.86h10v1h-6v2l2,1c-1.65-.33-3.3-.66-5-1-.33-.99-.66-1.98-1-3Z"/>
  <path class="cls-32" d="M6.1,165.86c1.65.33,3.3.66,5,1-1.65,1.65-3.3,3.3-5,5-.66-.66-1.32-1.32-2-2l2-4Z"/>
  <path class="cls-4" d="M17.1,94.86l1,2c-.63,1.75-1.29,3.41-2,5h-3c-.33-.99-.66-1.98-1-3h2v-2c.99-.66,1.98-1.32,3-2Z"/>
  <path class="cls-9" d="M45.1,48.86c.99.33,1.98.66,3,1-.66,1.65-1.32,3.3-2,5h-3c.51-2.17,1-4,2-6Z"/>
  <path class="cls-14" d="M101.1,41.86c1.65.66,3.31,1.33,5,2-3.23,2.15-4.28,2.2-8,2,.66-.33,1.32-.66,2-1,.33-.99.66-1.98,1-3Z"/>
  <path class="cls-29" d="M40.1,22.86c.99.33,1.98.66,3,1-.33,2.64-.66,5.28-1,8h-2v-9Z"/>
  <path class="cls-31" d="M66.1,17.86l4,2c-.92,1.33-1.92,2.67-3,4h-2c-.04-1.67-.04-3.33,0-5l1-1Z"/>
  <path class="cls-28" d="M27.1,149.86l4,2v2h-2c-.33.66-.66,1.32-1,2-.66-.66-1.32-1.32-2-2,.25-1.41.59-2.75,1-4Z"/>
  <path class="cls-1" d="M69.1,139.86l2,1v2c-1.65.33-3.3.66-5,1v6h-1c-.17-2.21-.17-4.54,0-7,1.33-1.29,2.67-2.29,4-3Z"/>
</svg>