<?xml version="1.0" encoding="UTF-8"?>
<svg id="Layer_1" data-name="Layer 1" xmlns="http://www.w3.org/2000/svg" viewBox="0 0 176.34 229.97">
  <defs>
    <style>
      .cls-1 {
        fill: #231f20;
      }

      .cls-2 {
        fill: #fff;
      }
    </style>
  </defs>
  <path class="cls-2" d="M63.57,18.49c17.52-2.45,35.91,6.05,46.53,19.96,3.06,4.01,5.51,8.5,7.13,13.28,1.03,3.03,5.86,1.73,4.82-1.33-6.35-18.72-23.57-32.9-42.94-36.4-5.61-1.01-11.23-1.12-16.87-.33-1.34.19-2.07,1.89-1.75,3.08.4,1.44,1.73,1.93,3.08,1.75h0Z"/>
  <path class="cls-2" d="M2.5,32.22c8.85-.73,18.01-1.54,26.65,1.01,3.51,1.04,6.95,2.62,9.82,4.93,3.05,2.45,5.24,5.6,6.84,9.14,1.86,4.11,2.83,8.61,3.83,12.98.72,3.14,5.54,1.81,4.82-1.33-1.92-8.39-4.21-17.24-10.76-23.3s-15.5-8.54-24.24-9.04c-5.66-.33-11.32.14-16.95.61-1.35.11-2.5,1.07-2.5,2.5,0,1.27,1.15,2.61,2.5,2.5h0Z"/>
  <path class="cls-2" d="M73.03,6.12c7.6-2.31,16.07-.95,22.48,3.78s9.83,11.95,10.04,19.47c.09,3.21,5.09,3.22,5,0-.21-7.2-2.99-14.11-7.75-19.51S91.17,1.12,83.96.22c-4.1-.51-8.31-.12-12.26,1.08-3.07.93-1.76,5.76,1.33,4.82h0Z"/>
  <g>
    <path class="cls-1" d="M146.25,229.81c-.05.05.36.13.44.15-.07-.13-.54-.18-.44-.15Z"/>
    <polygon class="cls-1" points="145.52 228.63 145.69 228.68 145.3 228.47 145.52 228.63"/>
    <path class="cls-1" d="M145.67,227.73c-.72-.01.07.34-.2.47h-.16s.56.16.56.16c-.06-.22-.41-.52-.19-.63Z"/>
    <path class="cls-1" d="M147.27,227.41c-.28,0-.22-.14-.1.11.03,0,.05,0,.07-.01,0-.02,0-.05.03-.1Z"/>
    <path class="cls-1" d="M147.24,227.51c0,.11.24-.04,0,0h0Z"/>
    <path class="cls-1" d="M147.12,227.02l.24.16c.17-.01.21-.13.33-.08-.12-.15-.29-.14-.56-.08Z"/>
    <path class="cls-1" d="M146.61,226.85l.1.08c.07,0,.09-.02-.1-.08Z"/>
    <path class="cls-1" d="M146.92,227.09l-.21-.17c-.12,0-.35,0,.07.07-.21-.03,0,.02.14.09Z"/>
    <path class="cls-1" d="M146.81,227.16c-.16.06-.26.14-.5-.01.07.26.58.28.5.01Z"/>
    <path class="cls-1" d="M144.94,227.59l-.22.06.23.11c-.11-.05.22-.15,0-.17Z"/>
    <path class="cls-1" d="M147.55,226.19c-.15-.02-.41.03-.6.03l.17.11c.11-.05.21-.14.43-.13Z"/>
    <path class="cls-1" d="M146.95,226.22l-.25-.16c-.04.13.08.16.25.16Z"/>
    <polygon class="cls-1" points="145.82 226.76 146.35 227.04 145.82 226.71 145.82 226.76"/>
    <polygon class="cls-1" points="147.59 225.61 147.94 225.71 147.41 225.54 147.59 225.61"/>
    <path class="cls-1" d="M147.53,225.23c.29.07.49-.09.67-.02-.05-.11-.3-.2-.53-.28.13.08.09.18-.15.3Z"/>
    <path class="cls-1" d="M147.35,224.8c.07.04.19.08.33.13-.07-.04-.16-.09-.33-.13Z"/>
    <path class="cls-1" d="M146.78,225.81c.09,0,.33-.02.43-.1l-.43.05v.06Z"/>
    <path class="cls-1" d="M146.77,225.76h.01c.01-.06.02-.11.03-.13,0,.02-.02.05-.04.13Z"/>
    <path class="cls-1" d="M146.78,225.83h0s-.06,0,0,0Z"/>
    <path class="cls-1" d="M146.24,226.41c-.23-.1-.48-.28-.85-.14.29.08.5,0,.85.14Z"/>
    <path class="cls-1" d="M146.24,225.88l-.1.15c.11,0,.28-.02.39.03l-.29-.18Z"/>
    <polygon class="cls-1" points="146.11 225.8 146.24 225.88 146.28 225.82 146.11 225.8"/>
    <path class="cls-1" d="M146.95,225.08c-.19-.07-.2-.14-.23-.22-.08.09-.13.18-.13.27.13.01.37.05.36-.05Z"/>
    <path class="cls-1" d="M146.83,225.41l-.02-.02s-.05.02.02.02Z"/>
    <path class="cls-1" d="M146.69,224.04s-.05.01-.08.02h.07s0-.02,0-.02Z"/>
    <path class="cls-1" d="M146.51,225.14c-.08.07.02.11.15.14-.04-.05-.07-.1-.07-.16-.06,0-.1,0-.08.01Z"/>
    <path class="cls-1" d="M147.15,224.57c-.09.04-.16.08-.23.12.14-.04.34-.11.23-.12Z"/>
    <path class="cls-1" d="M146.92,225.37h.02c.09-.01.05,0-.02,0Z"/>
    <path class="cls-1" d="M146.92,225.37c-.06-.04-.17-.06-.26-.09.03.04.08.08.14.11.03,0,.08-.01.12-.02Z"/>
    <path class="cls-1" d="M143.94,223.97c.4-.02.77.12.35.28.3.12,1.6-.02,2.32-.19-.17,0-.33.01-.57-.12-.21.07-.49.35-.85.25-.21-.18.13-.16.34-.27-.49.11-.73-.19-1.45-.1l.26.14c-.11,0-.3-.04-.4.01Z"/>
    <path class="cls-1" d="M146.59,224.35l.05.06c.07-.07.22-.13.53-.24-.2-.1-.35-.11-.48-.11l-.04.31-.06-.02Z"/>
    <path class="cls-1" d="M146.65,224.69c-.43-.04-.62-.18-1.08-.08.04.17.36.11.55.22-.11-.29.24.08.48-.14.07.06.1.11.11.16.05-.05.12-.11.2-.16h-.03s0,0,0,0h0c-.05.01-.09.02-.06,0,0,0,0,0,0,0-.06,0-.11,0-.16-.01.09-.09.11-.02.16.01h.06s0,0,0,0l-.25-.29c-.06.07-.04.14.01.28Z"/>
    <path class="cls-1" d="M144.47,226.08s.07,0,.1,0c-.05-.02-.09-.03-.1,0Z"/>
    <path class="cls-1" d="M144.74,225.98c.06.02.23.05.18.11-.13.05-.21-.01-.35-.01.11.04.3.15.52.04l-.06-.02c.16-.1.7-.23.76-.21-.39.02-.67.04-1.05.09Z"/>
    <path class="cls-1" d="M145.59,225.36l-.21-.24-.37.12h.22c-.09.13.19.1.36.12Z"/>
    <polygon class="cls-1" points="146.9 224 147.36 224.01 146.71 223.9 146.9 224"/>
    <polygon class="cls-1" points="146.83 223.68 147.22 223.66 146.98 223.59 146.83 223.68"/>
    <path class="cls-1" d="M135.44,211.93l-.11.06s.08-.03.11-.06Z"/>
    <path class="cls-1" d="M135.75,212.2l.13-.15c-.08.07-.14.13-.13.15Z"/>
    <path class="cls-1" d="M144.82,216c.29-.25.76-.61.36-.41l-.38.22c.1.04.08.11.02.19Z"/>
    <path class="cls-1" d="M139.92,213.03l-.08.11c.13-.08.25-.15.36-.21-.09.03-.18.07-.27.11Z"/>
    <path class="cls-1" d="M138.5,214.13l.14-.26c-.06.08-.1.17-.14.26Z"/>
    <path class="cls-1" d="M133.33,211.13l-.27.36c.09.05.16-.17.27-.36Z"/>
    <path class="cls-1" d="M146.19,220.42c.14-.13.2-.21.2-.28-.22.17-.56.33-.2.28Z"/>
    <path class="cls-1" d="M138.33,208.35c-.08.04-.15.1-.21.17.08-.03.15-.08.21-.17Z"/>
    <path class="cls-1" d="M146.33,219.88s-.06.05-.09.07c.09.05.16.1.15.19.16-.12.25-.24-.06-.26Z"/>
    <path class="cls-1" d="M125.72,208.76s-.01-.03-.02-.05c0,.06,0,.06.02.05Z"/>
    <path class="cls-1" d="M122.79,204.57s.07-.04.12-.05c-.03-.03-.06-.02-.12.05Z"/>
    <path class="cls-1" d="M146.89,222.35c.04.07.05,0,0,0h0Z"/>
    <path class="cls-1" d="M145.22,222.88c-.05,0-.11-.01-.21,0,.1,0,.17,0,.21,0Z"/>
    <path class="cls-1" d="M143.56,219.94h0c-.08.03-.06.03,0,0Z"/>
    <path class="cls-1" d="M146.7,222.48s.09-.07.12-.1c-.03.02-.07.05-.12.1Z"/>
    <path class="cls-1" d="M146.91,222.44s-.02.05-.03.07c.07,0,.12-.01.03-.07Z"/>
    <path class="cls-1" d="M146.85,222.26s0,.08-.03.12c.03-.02.05-.03.07-.02,0-.02-.02-.05-.03-.09Z"/>
    <path class="cls-1" d="M130.32,208.28s0-.02,0-.04c-.1.16-.07.14,0,.04Z"/>
    <path class="cls-1" d="M140.08,216.63s.02,0,.02,0h0s-.03,0-.03,0Z"/>
    <path class="cls-1" d="M139.7,216.63c.51-.2.48-.12.41-.01l1.05-.68-1.46.69Z"/>
    <path class="cls-1" d="M134.56,211.47l-.1.4c-.48.45-.45.21-.65.73.76-1.13.48.15,1.26-.96l-.09.28s-.06.04-.08.01c-.23.62.67-.74.74-.44,0,.13-.07.32-.21.42l.34-.16c.02.05-.13.23-.15.18l.28.07-.03.03c.16-.15.43-.35.56-.44-.07.19-.12.09-.21.24l.33-.17c-.17.31-.49.5-.53.4-.74,1.14.32-.2.03.61l-.21.04c-.43.65-.17.5-.38.96.14-.21.56-1.12.89-1.28-.03.11-.02.18.22.03-.31.37-.18.33-.08.38l-.43.48c.2-.07.41-.32.66-.49.05.13-.26.51-.52.84.07.21.44-.68.69-.6-.05.3.21.18.62.06-.07.24-.29.26-.39.42l.44-.29s-.11.13-.17.18c.2-.08.46-.44.69-.46.54-.46-.54.92.15.5-.11.15-.3.25-.48.43.55-.18.41-.11,1.08-.42l-.2.4c.28-.41.82-.66,1.28-.84.15-.19.27-.35.33-.43l.43-.02c-.06.09-.25.21-.48.35.05-.02.1-.04.15-.06-.13.22-.44.42-.76.59.08-.1.17-.21.25-.32-.34.2-.7.44-.98.69.07-.04.13-.06.18-.05-.09.06-.17.11-.21.16-.05.05.08-.02.22-.1l-.52.49.23-.17-.17.51c.68-.29,1.65-.78,2.1-.66-.47.23-.7.49-1.21.84.48-.46-.38-.04-.38-.25,0,.11-.25.27-.34.32l.66-.12c-.41.29-.27.28-.4.46.78-.63.67-.2,1-.27-.27.2-.57.37-.59.2-.53.56,1.09-.49.66.02-.03-.03,0-.07-.15.01.3-.09.22.22-.05.33l-.03-.03c.05.26.38.64,1.14.24-.1.05-.9.49-1.05.57.89-.36,1.8-.71,2.72-1.03-.66.32-2.1,1.3-2.56,1.33-.06.1-.13.22.15.2.07-.08.88-.6.96-.58-.64.53-.33.31-.86.8.11-.13,1.15-.61,1.17-.5-.16.07-1,.53-1.12.56l1.11-.3c-.21.04-.85.42-1.11.61.19-.12.07.19.2.19l.19-.2c-.03.31,1.55-.45,1.61-.15-.23.06-1.33.52-1.41.7.55-.19,2.65-.87,3.17-.77l-.28.17.43.05c-.86.18-2.67.57-3.39.73-.2.19-.34.18-.26.3-.26.17-.46.11-.49.08l-.05.38c.62-.27.73-.02,1.24-.24-.26-.03-.53-.05-.79-.08.6-.28,1.86-.54,1.84-.24-.23.16-1.13.39-1.34.48.23-.06.49.06.35.14l-.37.03c-.19.21.91-.1.37.27-.02.07-.76.44-.38.32.69-.33,2.92-1.16,3.49-1.28-.04.04-.57.56-.92.75-.54.28-1.4.31-1.87.55.18-.05.41-.08.48-.08-.13.11-.55.15-.43.25.66-.19.02.27.57-.12.22.07-.09.18-.02.31.41-.18,1.48-.29,1.71-.21-.17.04-.38.13-.47.17.03.29-.25.52-.19.77-.15.06-.32.23-.62.25.13,0,.36-.01.39.06-.54.28-.13-.15-.79.12.39-.08.58.07.85.13.59-.16.05-.28-.21-.33.82-.2,1.73-.2,2.18.01.25.19-.52.21-.39.22-.07.45,1.51.1.98.58-.51.23-1.05.18-1.43.27-.23-.14.29-.33.24-.46l-.22.2c-.19-.03-.34-.12-.2-.21-.46.2.04.71-.37,1.09.18.03.38.11.59.03l-.09-.09c.42-.15.62.12.8-.04.32.1.81.21.59.44l-.61.1c.18-.02.35-.17.16-.21.28.06-.79.39.02.4l.41-.18c.32.11,1,.24.81.45.6-.13-.07-.04.63-.23-.86.19-.02-.49-.92-.22.8-.22.32-.27,1-.53-.2.03-.38.11-.3-.06-.06,0-.14,0-.18-.01h.01s-.02,0-.02,0c-.03,0-.04,0,0,0-.08.05-.19.09-.3.12-.47-.02-.48-.27-.73-.32.08-.1.23,0,.44-.07l-.37-.07c.44-.08.69-.36.99-.17l-.02-.2c.23-.16.3-.34.09-.41.08-.11-.53-.15-.17-.13l-.33-.26.11-.02c0-.33-.87-.46-.16-.99-.13-.08-.29-.15-.21-.35l.37-.13c-.16-.1.26-.5-.15-.45.96-.44.02-.71.13-1l-.48.15c-.03-.17-.22-.27-.48-.39l-.42.16c-.4-.03.15-.52,0-.77.17-.05.15.04.07.12.83-.7-.95-.35-.38-.91-.18,0-.15-.07-.07-.17,0,0,.01,0,.03,0,0,0,0-.02,0-.03.06-.06.12-.13.18-.19-.09.07-.16.14-.18.18-.03-.05-.12-.1-.25-.13l.42-.24s-.01,0-.02-.01c.13-.15-.23.04-.54.23-.09,0-.19,0-.31.03.67-.4-.33-.08.37-.53-.39.13-.47-.24-1.24.12.1-.05.13-.1.16-.06.04-.13.09-.25-.16-.21l.52-.33-.82.22c.27-.28.43-.44.9-.56-.78.1-.36-.07-1.11.08l.35-.19c-.06-.07-.58.09-.33-.13.55-.58-.44-.87-.16-1.7-.88.76.28-.51-.46.01.2-.19.28-.34.53-.41-.38-.05.09-.59-.62-.27.2-.2.35-.2.46-.33-.06.02-.24.08-.13-.04.11-.12.21-.11.33-.15-.21-.2-.89.32-1.52.81.21-.34.13-.37-.34-.1.17-.2.32-.44.51-.37-.03-.09-.09-.68-.58-.26.1-.13-.05-.13-.12-.1-.11-.18-.08-.23-.26-.34l-.04.11c-.61.47-.24,0-.42-.05l.06-.05c.13-.65-.3.08-.12-.63l-.32.36c-.74.72.19-.67-.24-.53l-.13.25c-.32.19.7-1.25.69-1.43.04-.09.13-.08.2-.1.15-.67-.45.44-.72.4.19-.29.61-.61.52-.77.11-.27-1.06.53-.82-.1-.12.23-.25.46-.46.55-.18-.02.24-1.06-.38-.49.03-.07.06-.13.1-.18-.23.09-.54.03-.86.35.85-1.43-1.1.24-.24-1.03l-.37-.15.09-.13c-.16-.22-.43.05-.69.32,0-.12.11-.22.16-.29-.16-.45-.23-.42-.86.1l.21-.45c-.2.21-.11-.93-.7-.58.03-.05.08-.13.13-.18-.6.34-.32-1.68-1.19-.08l-.42.31c.25.26-.35.7-.34,1.03-.15.05-.09-.63.09-.66v.09c.4-.85-.26-.47-.02-1.06-.64-.18-1.09-.91-1.71-1.12l-.13.72-.2-.1c0-.18.08-.57.22-.5.03-.42-.35.26-.39.41-.22-.37.34-.79.25-.83l-.14.02v.09c-.17.26-.26.56-.44.48-.08-.17.05-.45,0-.49.01-.05,0-.08-.07-.04l-.26-.12-.02.59c-.18.25-.25-.09-.27.58.04-1.04-.92-.57-.98-.88-.24.39-.4.35-.6.27.03.13-.03.77-.19.67.25-1.32-.24-.62-.27-1.59.06.65-.54.1-.42,1.03-.14-.12.04-.5-.04-.83-.4.47-.78-.4-1.25-.24-.01.18.05.45-.05.7l-.21-.89c-.09.08-.1,1.01-.25.4.02.15.05.37,0,.43-.43-.42-.89-.25-1.33-.14-.45.12-.88.13-1.43-.6.17.32.09.37,0,.39.07.07.05.43.1.67l-.46-.6c.03.66-.39.1-.33.73l.1-.13c-.02.76.48,1.61.6,2.56.03-.86.56,1.19.64-.05.08.19,0,.31.05.53.01-.42.08-.51.24-.33v.1c.37-.13.57.25,1,.5l-.05-.47c.1.06.12.21.17.33.08-.72-.26-.04-.2-.83.16.96.67,0,.76,1.1.14,0-.04-.55.1-.54l.04.3.04-.38c.09.06.13.44.13.69-.02-.03-.06.07-.09.09.11.35.33-.1.37.01l-.13-.19c.39-.26.82.14,1.24-.41v-.23c.33-.38.2.27.53.11l-.02.05c.09-.22.19-.31.28-.27-.12.25.07.53-.07.8.37-.39.2-.32.54-1.1v.37c.11-.32.15-.49.33-.56-.19.29,0,.57-.22.96.17.84.65-.7.55.49.37-.97-.16-.62-.03-.82,0-.35.29-.72.37-.6.11.05-.11,1.32.15,1.36-.02-.01-.04.06-.07.05.03.28.28-.3.29.14.22-.58.14.08.37-.68l-.29.11c.18-.16.56-1.02.67-.52-.06.15-.19.33-.27.43,0,.24.17-.11.17.14-.24.76-.34.08-.63.62-.02.34.42-.48.12.33.4-1.02.2.2.61-.55l-.15.45c.05-.06.17-.26.22-.24l-.27.56c.29-.46.12.51.33.28-.27-.08.12-.57.11-.93.54-.49-.2,1.25.23,1.16-.07.05-.09-.33.06-.51.04.12.07.32.02.57.27,0,.13-.47.34-.71-.12.57.2-.18.38-.31l-.17.45c.16.4.45-.9.56-.45l-.36.57.19-.1-.24.5c.29-.32.3-.2.37,0,.1-.33.37-.8.5-.75-.03.3-.23.4-.03.41-.17.26-.36.59-.25.15-.08.14-.15.26-.23.4-.05.34.19.16.25.18-.02-.03-.03-.06-.02-.13l.53-.49c-.04.18-.13.3-.22.41.07-.02.2-.21.29-.21-.19.34-.36.71-.54.83l.41-.28c-.06.16-.1.48-.19.59.01.27.65-.53.67-.17.04-.06.1-.12.16-.15.11.17,0,.66.45.3l-.26.66c.22-.06.32-.84.69-.93.29-.09-.25.55-.3.75.26-.25.79-.76.63-.19-.12.08-.1-.03-.18-.02ZM136.36,212.42c-.1.05-.35.24-.19,0,.39-.4.24-.17.19,0ZM139.4,213.88c-.14.08-.11-.01,0-.17.06,0,.07.05,0,.17ZM146.39,221.66s-.01,0-.02,0c.17-.14.1-.09.02,0ZM146.22,221.92c.07.01.14,0,.2-.02-.12,0-.14-.05-.12-.11-.12.04-.2.08-.08.13ZM130.51,204.97v.13c-.12.11-.06,0,0-.13Z"/>
    <path class="cls-1" d="M138.66,214.01c.05-.06.12-.12.19-.18-.07.04-.14.1-.19.18Z"/>
    <polygon class="cls-1" points="133.38 211.06 133.37 211.05 133.33 211.13 133.38 211.06"/>
    <path class="cls-1" d="M141.51,219.75c.05-.06.13-.11.22-.15-.11.04-.2.08-.22.15Z"/>
    <path class="cls-1" d="M147.19,223.04l-.14-.14c.03.07-.07.11-.14.15.11-.01.27-.06.28-.01Z"/>
    <path class="cls-1" d="M144.29,224.47c.06.02,0,.04.07.06h.22c-.02-.1-.2-.15-.29-.06Z"/>
    <path class="cls-1" d="M145.61,223.33c-.4.05-.25.12-.18.21,0,0,0-.01,0-.02.57-.02.38-.11.18-.2Z"/>
    <path class="cls-1" d="M145.45,223.56s.03.06.02.09c.23,0,.05-.04-.02-.09Z"/>
    <path class="cls-1" d="M146.53,222.17c-.1.06.52-.04.36.01.52-.02-.66-.24-.36-.01Z"/>
    <polygon class="cls-1" points="144.28 223.52 144.78 223.45 144.37 223.43 144.28 223.52"/>
    <path class="cls-1" d="M144.56,222.75l-.12.17c.08-.01.13,0,.17.02,0-.09.09-.21-.05-.19Z"/>
    <path class="cls-1" d="M144.62,222.94s.01.09.1.11c0-.03-.03-.08-.1-.11Z"/>
    <polygon class="cls-1" points="144.11 223.34 144.21 223.28 144.23 223.18 144.11 223.34"/>
    <path class="cls-1" d="M144.4,221.13l-.18-.13c-.17.02-.26.09-.18.13.13.01.21.06.36,0Z"/>
    <path class="cls-1" d="M143.14,221.87c.1-.06.2-.08.36-.14l-.61.11.25.03Z"/>
    <path class="cls-1" d="M142.92,221.46c-.17.02-.53-.11-.45.07.17-.02.34.1.45-.07Z"/>
    <polygon class="cls-1" points="143.05 218.99 143.07 219.02 144.04 218.69 143.05 218.99"/>
    <path class="cls-1" d="M140.06,218.07c-.16.25.59-.23.37.04.23-.06.18-.22.38-.27-.27.01-.16-.1-.75.23Z"/>
    <path class="cls-1" d="M140.81,217.84s.09,0,.16-.02c-.07,0-.12,0-.16.02Z"/>
    <polygon class="cls-1" points="122.2 204.11 122.03 203.92 122.18 204.24 122.2 204.11"/>
    <path class="cls-1" d="M122.07,204.89l-.15-.63.02.59s.07-.1.12.04Z"/>
    <path class="cls-1" d="M135.72,213.6l.11-.11c.1-.14.09-.16.07-.21l-.18.33Z"/>
    <polygon class="cls-1" points="134.96 212.36 134.97 212.39 135.28 211.88 134.96 212.36"/>
    <path class="cls-1" d="M133.59,212.34s.14-.04.17,0c-.14.03.21-.64-.17,0Z"/>
  </g>
  <g>
    <path class="cls-1" d="M175.91,219.56c0,.08.36-.14.43-.17-.14-.06-.53.22-.43.17Z"/>
    <polygon class="cls-1" points="174.52 219.09 174.68 219.02 174.24 219.11 174.52 219.09"/>
    <path class="cls-1" d="M173.97,218.26c-.53.49.3.23.2.52l-.12.11.52-.25c-.21-.13-.68-.14-.61-.38Z"/>
    <path class="cls-1" d="M174.87,216.88c-.2.2-.26.05.01.16.02-.03.03-.04.04-.06-.02-.02-.04-.04-.05-.1Z"/>
    <path class="cls-1" d="M174.93,216.98c.08.08.14-.2,0,0h0Z"/>
    <path class="cls-1" d="M174.47,216.67l.29-.04c.11-.13.05-.25.17-.29-.21-.04-.31.1-.46.33Z"/>
    <path class="cls-1" d="M173.98,216.9h.13c.04-.06.05-.09-.13,0Z"/>
    <path class="cls-1" d="M174.38,216.87l-.28.02c-.08.09-.25.24.11,0-.17.12,0,.02.17-.02Z"/>
    <path class="cls-1" d="M174.36,217.01c-.07.16-.08.3-.36.34.24.16.62-.18.36-.34Z"/>
    <path class="cls-1" d="M173.34,218.66l-.11.2.24-.07c-.12.03.04-.27-.13-.13Z"/>
    <path class="cls-1" d="M174.14,215.71c-.12.1-.27.31-.4.45l.2-.03c.04-.11.04-.26.2-.42Z"/>
    <path class="cls-1" d="M173.73,216.16l-.3.05c.07.13.18.07.3-.05Z"/>
    <polygon class="cls-1" points="173.35 217.38 173.94 217.23 173.31 217.35 173.35 217.38"/>
    <polygon class="cls-1" points="173.71 215.23 174.03 215.06 173.53 215.31 173.71 215.23"/>
    <path class="cls-1" d="M173.36,214.98c.25-.16.27-.42.45-.5-.12-.05-.37.06-.59.16.15-.02.21.07.13.33Z"/>
    <path class="cls-1" d="M172.9,214.78c.08-.02.2-.08.33-.13-.08.01-.18.05-.33.13Z"/>
    <path class="cls-1" d="M173.3,215.96c.06-.07.21-.25.22-.39l-.26.34.04.05Z"/>
    <path class="cls-1" d="M173.25,215.93h0c-.04-.07-.07-.11-.08-.12,0,.02.03.05.07.12Z"/>
    <path class="cls-1" d="M173.31,215.98h0s-.03.03,0,0Z"/>
    <path class="cls-1" d="M173.38,216.82c-.24.09-.55.12-.71.5.26-.15.35-.36.71-.5Z"/>
    <path class="cls-1" d="M172.98,216.4l.04.19c.08-.08.18-.21.3-.26l-.34.07Z"/>
    <polygon class="cls-1" points="172.82 216.43 172.98 216.4 172.96 216.33 172.82 216.43"/>
    <path class="cls-1" d="M172.84,215.28c-.18.08-.25.04-.34,0,.01.13.05.23.12.3.1-.09.3-.23.21-.29Z"/>
    <path class="cls-1" d="M173.01,215.62h-.03s-.02.05.03,0Z"/>
    <path class="cls-1" d="M171.83,214.69s-.03.05-.04.07l.05-.05h-.01Z"/>
    <path class="cls-1" d="M172.58,215.64c0,.11.1.07.22,0-.07,0-.13-.03-.18-.07-.05.04-.07.07-.04.07Z"/>
    <path class="cls-1" d="M172.58,214.75c-.03.09-.05.18-.06.26.07-.13.15-.33.06-.26Z"/>
    <path class="cls-1" d="M173.05,215.53h.02c.05-.09.02-.05-.02,0Z"/>
    <path class="cls-1" d="M173.05,215.53c-.07.02-.17.07-.25.12.06,0,.12,0,.19-.02.01-.03.04-.07.07-.1Z"/>
    <path class="cls-1" d="M169.89,216.63c.26-.3.62-.47.46-.05.3-.13,1.09-1.18,1.45-1.82-.12.13-.22.25-.49.33-.09.2-.06.61-.39.8-.29.03-.04-.21.02-.44-.25.43-.65.39-1.07.99l.29-.09c-.07.09-.23.19-.26.3Z"/>
    <path class="cls-1" d="M172.01,214.99h.08c-.01-.1.05-.25.17-.55-.22.07-.33.17-.42.26l.22.26-.06.03Z"/>
    <path class="cls-1" d="M172.33,215.2c-.33.28-.57.32-.81.72.16.1.34-.17.55-.23-.3-.14.23-.11.23-.45.1,0,.15.01.2.04,0-.08,0-.17.01-.26v.03s-.01,0-.01,0h0c-.03.05-.04.08-.04.05,0,0-.01,0-.01,0-.04.04-.08.08-.12.11,0-.13.06-.09.12-.11l.05-.04h0c-.13-.02-.27-.03-.41-.04.01.09.09.13.23.2Z"/>
    <path class="cls-1" d="M171.88,217.82s.05-.05.07-.07c-.05.02-.08.04-.07.07Z"/>
    <path class="cls-1" d="M172,217.55c.06-.02.2-.13.21-.04-.06.13-.15.14-.26.24.11-.05.33-.1.39-.34l-.06.02c.03-.19.32-.68.38-.7-.26.29-.44.5-.67.82Z"/>
    <path class="cls-1" d="M172.11,216.47l-.33-.03-.17.36.15-.16c.04.16.21-.05.35-.16Z"/>
    <polygon class="cls-1" points="171.95 214.5 172.27 214.18 171.73 214.57 171.95 214.5"/>
    <polygon class="cls-1" points="171.64 214.31 171.9 214.01 171.67 214.14 171.64 214.31"/>
    <path class="cls-1" d="M154.81,216.32v.13s0-.08,0-.13Z"/>
    <path class="cls-1" d="M155.2,216.16l-.07-.18c.03.11.05.18.07.18Z"/>
    <path class="cls-1" d="M163.82,210.62c-.03-.39-.05-.98-.13-.54l-.05.43c.1-.06.15,0,.18.11Z"/>
    <path class="cls-1" d="M158.17,212.92s.03.08.05.13c0-.15.01-.29.02-.42-.02.09-.04.19-.06.29Z"/>
    <path class="cls-1" d="M158.34,214.71l-.15-.26c.04.09.09.18.15.26Z"/>
    <path class="cls-1" d="M153.1,217.89l.21.39c.08-.06-.09-.21-.21-.39Z"/>
    <path class="cls-1" d="M168.52,212.46c-.01-.2-.05-.3-.1-.35,0,.28-.09.65.1.35Z"/>
    <path class="cls-1" d="M152.97,212.09c-.01.09,0,.18.05.27.01-.09,0-.18-.05-.27Z"/>
    <path class="cls-1" d="M168.16,211.98s0,.07,0,.12c.1-.03.19-.05.26.01,0-.21-.04-.36-.26-.13Z"/>
    <path class="cls-1" d="M148.05,224.34s-.03,0-.06,0c.06.02.06.01.06,0Z"/>
    <path class="cls-1" d="M143.21,226.23s-.02-.09-.02-.14c-.03.02-.03.06.02.14Z"/>
    <path class="cls-1" d="M170.6,213.3c.08.02.04-.03,0,0h0Z"/>
    <path class="cls-1" d="M169.9,214.91s-.09.08-.15.16c.07-.08.11-.13.15-.16Z"/>
    <path class="cls-1" d="M166.38,214.13h0c-.02.08-.01.07,0,0Z"/>
    <path class="cls-1" d="M170.58,213.53c0-.06,0-.12,0-.16,0,.04,0,.09,0,.16Z"/>
    <path class="cls-1" d="M170.68,213.35s.02.05.03.07c.05-.05.07-.1-.03-.07Z"/>
    <path class="cls-1" d="M170.5,213.26s.06.06.08.11c0-.03.01-.06.02-.07-.02,0-.05-.02-.1-.04Z"/>
    <path class="cls-1" d="M149.2,219.67s-.02,0-.04-.01c.11.16.1.12.04.01Z"/>
    <path class="cls-1" d="M161.41,214.79s0-.01,0-.02v-.02s0,.04,0,.04Z"/>
    <path class="cls-1" d="M161.18,215.1c.13-.53.18-.46.23-.34l.06-1.25-.29,1.59Z"/>
    <path class="cls-1" d="M153.98,216.91l.32.27c.19.63-.02.49.37.91-.68-1.18.35-.36-.29-1.56l.21.21s0,.07-.02.07c.45.49-.35-.94-.04-.86.12.06.26.21.28.38l.02-.38c.06,0,.15.22.09.22l.2-.22v.04c-.04-.21-.09-.55-.1-.7.14.15.02.15.11.29v-.37c.21.3.22.67.11.67.66,1.19-.02-.38.56.25l-.06.21c.37.68.36.39.67.79-.11-.23-.72-1.03-.7-1.39.08.08.15.1.14-.18.17.45.21.31.3.25l.21.61c.04-.21-.07-.52-.1-.81.14.01.32.48.47.86.22.05-.38-.72-.18-.9.24.19.27-.09.37-.52.17.18.08.38.17.55l-.03-.52s.06.16.07.24c.04-.22-.15-.62-.05-.83-.11-.71.52.93.53.12.08.17.05.39.12.63.14-.56.13-.41.22-1.14l.24.38c-.2-.45-.12-1.04-.02-1.53-.08-.22-.15-.41-.2-.5.07-.13.15-.26.23-.38.05.1.04.32.03.59.01-.05.02-.11.03-.16.12.23.12.6.1.96-.05-.12-.09-.25-.14-.38-.01.39,0,.83.06,1.2,0-.08.03-.15.05-.18,0,.11,0,.2.02.26.02.06.02-.08.04-.24l.14.7-.02-.28.34.42c.13-.73.26-1.81.64-2.13-.07.52.02.85.04,1.47-.13-.66-.26.3-.44.18.1.06.1.36.08.46l.28-.62c.02.5.08.38.17.59-.1-1,.22-.67.35-.97.01.34-.02.68-.18.6.18.75.22-1.18.4-.54-.04,0-.06-.04-.08.13.09-.3.32-.06.26.23h-.04c.25.11.78.07.89-.79-.01.11-.12,1.02-.15,1.19.22-.94.48-1.88.77-2.81-.12.72-.16,2.46-.42,2.86.05.11.11.23.26,0-.03-.11.02-1.07.09-1.12.06.83.06.45.16,1.17-.04-.17.19-1.29.29-1.23-.04.17-.16,1.12-.21,1.23l.43-1.07c-.1.19-.17.94-.17,1.26.01-.22.2.05.29-.05l-.05-.27c.24.21.58-1.5.87-1.37-.09.22-.39,1.38-.29,1.55.18-.55.93-2.63,1.35-2.98l-.03.33.32-.3c-.39.79-1.21,2.46-1.53,3.12.04.28-.06.38.09.39-.03.31-.19.44-.24.44l.28.27c.16-.66.43-.59.58-1.12-.19.18-.38.38-.56.58.14-.65.72-1.81.96-1.59-.01.28-.39,1.13-.45,1.35.1-.21.36-.35.33-.18l-.21.31c.05.28.49-.78.46-.11.04.06-.12.87.02.5.17-.75.91-3.01,1.17-3.53.01.06.11.8.04,1.19-.12.6-.65,1.28-.75,1.8.07-.17.2-.36.25-.42,0,.17-.23.52-.07.5.27-.63.24.16.27-.51.2-.13.08.19.24.22.12-.43.72-1.33.94-1.44-.08.16-.14.37-.16.48.26.17.26.54.51.66-.05.16-.02.4-.21.63.09-.09.23-.28.31-.26-.13.59-.21,0-.42.68.19-.35.44-.39.66-.55.26-.55-.2-.23-.41-.06.38-.75.98-1.44,1.46-1.64.32-.06-.17.53-.07.45.32.37,1.09-1.06,1.13-.33-.15.54-.56.91-.74,1.26-.27.07-.08-.45-.21-.5v.3c-.14.12-.31.17-.3,0-.15.48.61.46.63,1.03.15-.11.34-.21.42-.41h-.13c.16-.42.51-.37.51-.62.3-.16.72-.45.76-.12l-.33.52c.1-.15.1-.38-.06-.26.24-.16-.22.86.34.27l.13-.43c.31-.16.88-.56.92-.27.3-.54-.08.03.24-.63-.43.77-.42-.35-.8.52.37-.75,0-.43.24-1.12-.11.17-.17.36-.25.17-.04.04-.1.09-.13.12v-.02s0,.03,0,.03c-.02.02-.03.03,0,0-.02.1-.05.2-.1.3-.34.33-.55.16-.75.31-.03-.14.16-.17.24-.38l-.31.22c.24-.38.17-.77.53-.86l-.18-.13c.02-.28-.08-.46-.28-.36-.04-.14-.48.29-.22.03l-.44.06.05-.1c-.27-.24-.96.34-.94-.57-.15.05-.32.12-.44-.08l.13-.37c-.19.06-.26-.53-.48-.19.26-1.03-.6-.49-.78-.77l-.19.47c-.16-.09-.38,0-.65.12l-.13.43c-.29.29-.36-.45-.66-.5.07-.16.13-.09.15.02-.07-1.1-.92.52-1.04-.27-.12.14-.16.07-.19-.05,0,0,.02,0,.02-.02,0,0-.02-.01-.03-.01-.02-.08-.03-.18-.06-.26.01.11.02.21.04.26-.06,0-.17.03-.28.12l.06-.48s-.01,0-.02,0c-.06-.19-.12.21-.14.57-.06.07-.12.16-.17.26.07-.78-.28.22-.23-.61-.13.39-.51.23-.68,1.06.01-.11,0-.17.04-.17-.08-.11-.17-.22-.29,0l.04-.61-.31.79c-.09-.38-.12-.6.06-1.06-.4.69-.29.25-.62.94l.04-.39c-.1,0-.28.52-.32.19-.18-.79-1.05-.13-1.63-.83.16,1.16-.29-.52-.27.4-.05-.27-.14-.42-.06-.67-.28.3-.49-.4-.62.38-.06-.27.02-.41-.02-.57-.02.06-.07.25-.12.09-.05-.16.02-.23.06-.36-.31.08-.24.92-.17,1.72-.19-.36-.26-.3-.29.23-.08-.25-.21-.5-.04-.63-.1-.02-.68-.27-.58.36-.06-.15-.15-.02-.16.06-.23,0-.26-.05-.47.05l.08.09c.08.76-.14.21-.29.34v-.08c-.54-.43-.11.3-.67-.2l.15.46c.26,1-.51-.5-.62-.05l.16.23c0,.37-.77-1.21-.96-1.28-.06-.07,0-.15.01-.23-.55-.45.16.61-.03.84-.16-.3-.24-.83-.43-.83-.19-.22-.09,1.2-.55.7.15.22.3.44.27.67-.12.16-.86-.69-.66.13-.05-.05-.09-.11-.12-.17-.04.25-.26.51-.12.94-.9-1.39-.33,1.12-1.09-.21l-.33.29-.07-.14c-.29.06-.17.43-.04.79-.11-.05-.15-.2-.19-.27-.5-.03-.51.05-.33.86l-.32-.38c.1.27-.93-.26-.88.44-.03-.05-.09-.13-.11-.2.04.7-1.74-.32-.63,1.12l.1.52c.36-.15.5.6.82.72-.02.17-.63-.15-.58-.33l.08.05c-.61-.72-.56.07-1.01-.38-.45.57-1.34.75-1.79,1.3l.63.38-.18.16c-.17-.05-.51-.28-.38-.4-.39-.18.1.44.23.53-.44.09-.61-.61-.68-.54l-.04.15.09.02c.17.27.42.46.28.61-.19.02-.41-.2-.46-.17-.04-.03-.07-.03-.06.06l-.22.22.55.22c.16.27-.18.22.44.46-.48-.2-.71,0-.86.22-.14.23-.19.5-.36.48.28.37.19.52.03.69.13,0,.72.28.56.4-1.17-.67-.67.05-1.61-.22.64.14-.09.59.83.75-.17.1-.46-.2-.8-.21.3.55-.65.69-.66,1.23.16.06.45.08.66.26l-.92-.04c.05.12.93.39.3.38.15.02.37.05.41.13-.53.33-.51.86-.53,1.36,0,.51-.12.95-.97,1.36.35-.1.38,0,.38.1.09-.06.43.05.67.07l-.7.34c.65.13,0,.45.63.53l-.1-.13c.73.21,1.68-.11,2.63,0-.83-.25,1.29-.27.1-.66.2-.03.3.09.52.09-.4-.12-.47-.21-.26-.32l.1.03c-.02-.41.39-.52.75-.87l-.47-.08c.09-.08.24-.06.36-.08-.67-.28-.11.25-.85-.03.97.1.2-.67,1.27-.45.04-.14-.54-.12-.49-.26l.29.05-.36-.15c.09-.08.46,0,.7.07-.04.01.04.08.06.11.37,0,0-.35.12-.36l-.22.07c-.13-.46.38-.77,0-1.35l-.22-.06c-.25-.45.32-.12.29-.5l.04.03c-.18-.16-.23-.29-.16-.36.19.19.53.1.73.33-.24-.49-.23-.3-.85-.89l.35.14c-.26-.23-.41-.32-.4-.53.21.28.54.19.83.54.85.12-.43-.87.66-.38-.77-.69-.65-.05-.78-.25-.33-.11-.57-.52-.42-.57.09-.09,1.21.55,1.34.32-.02.02.04.07.03.09.27.07-.18-.38.24-.23-.46-.42.13-.11-.5-.59v.31c-.09-.23-.75-.9-.23-.83.11.11.24.3.3.41.23.08-.04-.2.2-.12.62.5-.06.36.34.83.31.14-.28-.57.36,0-.8-.74.27-.12-.27-.78l.36.31c-.04-.07-.18-.26-.14-.29l.42.46c-.32-.45.52.07.39-.21-.18.22-.48-.32-.83-.45-.23-.7,1.09.64,1.18.21.02.08-.35-.04-.45-.25.13,0,.33.05.54.19.1-.26-.39-.3-.52-.58.48.33-.08-.26-.13-.48l.35.33c.44,0-.66-.76-.18-.7l.38.56-.02-.22.36.41c-.17-.4-.06-.36.16-.35-.26-.22-.58-.65-.49-.76.26.14.27.38.37.19.17.26.39.57.03.3.09.13.18.25.27.37.29.18.23-.11.27-.16-.03,0-.07,0-.13-.03-.08-.23-.16-.46-.23-.69.15.11.22.24.29.37,0-.07-.1-.27-.06-.35.24.31.5.62.53.83l-.08-.49c.12.12.4.28.46.41.25.1-.21-.82.13-.69-.04-.07-.06-.14-.06-.2.2-.03.6.28.47-.29l.49.52c.05-.23-.62-.65-.54-1.03.05-.3.38.46.55.59-.11-.34-.33-1.05.12-.65.01.14-.08.08-.1.15ZM155.7,215.72c0,.11.04.43-.09.17-.17-.53-.03-.3.09-.17ZM158.62,213.81c-.02.16-.07.09-.15-.09.04-.04.09-.03.15.09ZM169.69,213.18l-.02.02c0-.22,0-.14.02-.02ZM169.79,213.48c.06-.04.09-.1.12-.16-.08.09-.13.07-.17,0-.05.12-.07.21.05.15ZM146.15,218.34l.13.03c.05.17-.03.07-.13-.03Z"/>
    <path class="cls-1" d="M158.32,214.5c-.02-.08-.04-.17-.05-.26,0,.08,0,.18.05.26Z"/>
    <polygon class="cls-1" points="153.07 217.82 153.06 217.82 153.1 217.89 153.07 217.82"/>
    <path class="cls-1" d="M164.9,215.57c-.01-.08,0-.17.02-.26-.04.11-.06.21-.02.26Z"/>
    <path class="cls-1" d="M171.37,213.59h-.21c.08.03.04.13.03.22.06-.09.14-.24.18-.22Z"/>
    <path class="cls-1" d="M170.52,216.74c.05-.03.04.02.09,0l.14-.17c-.08-.05-.24.05-.24.18Z"/>
    <path class="cls-1" d="M170.52,214.95c-.24.33-.07.27.05.28,0,0-.01,0-.01-.01.37-.43.17-.36-.04-.27Z"/>
    <path class="cls-1" d="M170.6,215.24s.07.02.08.06c.15-.17,0-.06-.08-.06Z"/>
    <path class="cls-1" d="M170.21,213.43c-.01.12.32-.41.25-.26.34-.4-.64.31-.25.26Z"/>
    <polygon class="cls-1" points="169.77 216.06 170.05 215.64 169.76 215.93 169.77 216.06"/>
    <path class="cls-1" d="M169.35,215.3l.05.21c.05-.07.09-.1.13-.11-.07-.07-.1-.22-.19-.09Z"/>
    <path class="cls-1" d="M169.53,215.4s.08.06.16,0c-.03-.01-.09-.03-.16,0Z"/>
    <polygon class="cls-1" points="169.51 216.05 169.53 215.94 169.46 215.85 169.51 216.05"/>
    <path class="cls-1" d="M167.92,214.29l-.23.05c-.1.14-.1.26-.01.23.09-.09.18-.12.24-.27Z"/>
    <path class="cls-1" d="M167.69,215.75c.02-.11.07-.21.13-.37l-.32.53.19-.17Z"/>
    <path class="cls-1" d="M167.21,215.63c-.1.14-.44.33-.25.39.1-.15.3-.19.25-.39Z"/>
    <polygon class="cls-1" points="165.26 213.89 165.3 213.9 165.64 212.94 165.26 213.89"/>
    <path class="cls-1" d="M162.6,215.66c.11.28.17-.6.26-.27.09-.23-.07-.27.01-.47-.16.22-.18.07-.27.74Z"/>
    <path class="cls-1" d="M162.87,214.93s.05-.08.09-.14c-.04.05-.07.1-.09.14Z"/>
    <polygon class="cls-1" points="142.62 226.74 142.39 226.88 142.74 226.8 142.62 226.74"/>
    <path class="cls-1" d="M143.35,227.07h-.65s.58.12.58.12c-.03-.03-.08-.1.07-.12Z"/>
    <path class="cls-1" d="M156.44,216.84l-.05-.15c-.07-.15-.1-.16-.15-.16l.2.31Z"/>
    <polygon class="cls-1" points="154.97 216.94 155 216.94 154.69 216.44 154.97 216.94"/>
    <path class="cls-1" d="M154.33,218.16s.03-.15.08-.15c-.03.14-.49-.46-.08.15Z"/>
  </g>
</svg>