<?xml version="1.0" encoding="UTF-8"?>
<svg id="Layer_1" xmlns="http://www.w3.org/2000/svg" version="1.1" viewBox="0 0 1066 722">
  <!-- Generator: Adobe Illustrator 29.0.1, SVG Export Plug-In . SVG Version: 2.1.0 Build 192)  -->
  <defs>
    <style>
      .st0 {
        fill: #b9b9b9;
      }

      .st0, .st1, .st2, .st3, .st4, .st5, .st6, .st7, .st8, .st9, .st10, .st11, .st12, .st13, .st14, .st15, .st16, .st17, .st18, .st19, .st20, .st21, .st22 {
        stroke: #000;
        stroke-miterlimit: 10;
        stroke-width: 0px;
      }

      .st1 {
        fill: #4c4c4c;
      }

      .st2 {
        fill: #282828;
      }

      .st3 {
        fill: #cdcdcd;
      }

      .st4 {
        fill: none;
      }

      .st5 {
        fill: #ddd;
      }

      .st6 {
        fill: #d8d8d8;
      }

      .st7 {
        fill: #393939;
      }

      .st8 {
        fill: #2a2a2a;
      }

      .st9 {
        fill: #292929;
      }

      .st10 {
        fill: #3c3b3c;
      }

      .st11 {
        fill: #c3c3c3;
      }

      .st12 {
        fill: #2f2f2f;
      }

      .st13 {
        fill: #d1d1d1;
      }

      .st14 {
        fill: #2d2d2d;
      }

      .st15 {
        fill: #cfcfcf;
      }

      .st16 {
        fill: #cecece;
      }

      .st17 {
        fill: #212121;
      }

      .st18 {
        fill: #242424;
      }

      .st19 {
        fill: #d5d5d5;
      }

      .st20 {
        fill: #343434;
      }

      .st21 {
        fill: #d0d0d0;
      }

      .st22 {
        fill: #d6d6d7;
      }
    </style>
  </defs>
  <path class="st4" d="M90.8,31.4c5.6,2.5,8.6,7.1,12,12,2.7-1.2,4.1-2.2,6.2-4.4,4.9-4.7,9.4-6.9,16.2-7.1,10.5.4,20.8,3.7,30.5,7.5,4,1,7.7,1.1,11.8,1.2,8.6.4,16.1,3,24.2,5.8,11.1,3.2,22.9,4,34.4,4.2,8.8.2,15.8.9,23.9,4.6,3.2,1.4,6.3,2.1,9.7,2.8,1.8.4,3.6.9,5.4,1.4,10.8,3,22.1,4.5,33.2,5.4,8.5.7,16.7,1.7,25,3.9,20.6,5.2,41.7,8.6,62.8,10.8,6.9.7,13.6,1.8,20.4,3.3,4,.9,7.9,1.5,11.9,2.1,3.2.6,6.4,1.3,9.6,2,11.7,2.4,23.6,3.2,35.5,4.3,11.3,1.1,22.3,2.3,33.4,4.8,7.9,1.8,15.8,2.7,23.8,3.6,2.1.2,4.3.5,6.4.7,1.9.2,3.8.4,5.7.7q2.9.4,4.9,1.4c1.8.2,3.5.4,5.3.6,1.1.1,2.2.2,3.4.3,1.2.1,2.4.2,3.7.4,10.3,1,20.4,2.3,30.6,3.8,14.9,2.1,29.3,3,44.3,2.8q34.9-.5,50.8,5.1c.8.3,1.5.5,2.3.8,9.4,3.2,18.2,7.3,26.9,12.2,3.2,1.8,6.4,3.4,9.7,4.9,29.8,14.4,58,37.5,70.3,68.8,3.3,10.9,2.1,21.7-1.3,32.3,2.8-2,5.6-3.9,8.4-5.9.8-.6,1.6-1.1,2.4-1.7.8-.5,1.5-1.1,2.3-1.6.7-.5,1.4-1,2.1-1.5q1.9-1.3,3.8-3.3c-.3-1.7-.7-3.3-1-5-.5-6.3-.3-11.4,3-17,8-9.1,19.9-9.8,31.2-11.5q8.7-1.3,16.8-4.5c1.7-2.4,2.5-4.9,3.4-7.6,5.3-13.7,15.6-20.5,28.7-26.3,7.6-3.2,15.2-5.9,23.2-8.1q4.9-1.4,8.4-5,1.7-4,2.2-8.3c0-7.8,2.3-12.4,6.5-18.7,3.7-5.8,5.6-11.6,7.5-18.2,2.6-9.3,5.7-17.6,14.4-22.7,7.2-2.6,16.7-2.1,23.9.5,1.6.8,3.2,1.6,4.8,2.5q1.6.9,3.3,1.8c11,6.3,15.6,13.5,21.4,24.4,3.6,6.7,6.8,11.8,14.3,14.4,4.9,1.9,8.4,3.6,12.1,7.4v3c1,.3,6.1,12.2,7.2,12.6,4,5.4,3.7,11.6,3,18-1.6,5.9-9.1-2.2-14,1.3-2.2,1.2-4.1,1.8-6.5,2.3-1.2.3-2.4.6-3.6.9-.7,1.3-1.4,2.6-2,4-3.8,4-8.1,7.1-12.7,10.1-2.9,1.8-5,3.5-7.1,6.2-2.3,2.8-3.8,3.8-7.2,4.8-.1,1-.2,2-.3,3.1-.9,5.1-2.7,9.6-4.6,14.4-1.1,3.7-1.5,6.6-1.1,10.5q2.7,2.2,6,4c5.1,5.5,5.6,10.5,5.5,17.8-.8,5.6-3.5,9.3-7.5,13.2-3.2,2.3-6.5,4.2-10,6-2.8,1.4-3,3.4-4.2,6.2-2.5,5.6-5.9,7.6-11.3,9.9-4.2,1.6-8.6,2.4-13,3.2-.9.2-1.8.3-2.7.5q-6.5,1.2-8.8,1.2.2,1.5.5,3c2.4,16.9,3.1,41.8-7.5,56-1.9,2-3.7,3.4-6,5,.6,3.6,2.2,6.1,4.2,9.2.6,1,1.2,1.9,1.9,2.9,1.2,1.8,2.4,3.6,3.7,5.3q.8,1.1,1.6,2.2c.5.6,1,1.3,1.5,1.9,2.1,4.9,1.8,9.4.1,14.4-1.3,3.3-2.8,6.5-4.2,9.7-3.7,8.4-7.1,16.7-9.6,25.5-1.5,3.5-3.4,5.3-6.2,7.9-.9.8-1.8,1.7-2.7,2.5-1,.9-1.9,1.7-2.9,2.6-1.6,1.5-3.2,3-4.8,4.4-1.4,1.3-2.9,2.6-4.3,4-6.5,6.2-11.6,12.8-16.6,20.2-3.1,4.6-6.2,7.9-10.6,11.3-4.9,4.4-8.4,9.6-12,15q-1,1.4-2,2.8c-2.2,3.6-3.6,7.1-5,11.1-.5,1.4-1,2.7-1.5,4.1-.2.7-.5,1.3-.7,2-.5,1.4-1,2.8-1.6,4.2-1.9,4.8-2.5,7.8-1.1,12.8.5.6,1,1.1,1.5,1.7,2.1,3.2,2.1,6.3,2.4,10,.7,6.4,1.8,11.7,5.1,17.3.5.9,1,1.8,1.5,2.7,3.5,5.8,7.3,10.5,12.3,15.2,4.9,4.8,7.9,9,9.7,15.5.4,1.4.8,2.8,1.2,4.3.2.7.4,1.4.6,2.2.6,2.1,1.3,4.1,2,6.2,3.3,9.9,6.7,20.5,6.7,31h2q3.4,17-2.1,25.5c-6.8,9-16.7,15.4-27.9,17.5-7.6.9-12.7.5-18.8-4.2-.7-.6-1.4-1.2-2.2-1.8-.7-.6-1.5-1.1-2.2-1.7-2.6-2.1-5.2-4.2-7.8-6.3-2-1.6-3.9-3.2-5.9-4.8-1.4-1.1-2.8-2.3-4.2-3.4-3-2.4-5.9-4.8-9-7.1-5.9-4.3-8.7-7.8-10.9-14.7q-.5-1.6-1.1-3.2c-1.1-3.2-2.1-6.4-3.2-9.6-.8-2.5-1.7-5-2.5-7.6q-.5-1.4-.9-2.8c-.6-1.8-1.2-3.6-1.8-5.4-1.7-5.1-3.3-10.2-4.7-15.3-1.1-3.2-2.9-5.8-4.8-8.6q-1-1.7-1-4.7c-4,.1-8,.2-12.1.4-1.1,0-2.3,0-3.4,0-5.9.2-10.9.7-16.5,2.5-7.5.9-12.9.1-19.4-3.6-2.9-1.5-5.7-2.4-8.8-3.4-3.7-1.1-6.3-2.2-9.2-4.8-5-3.9-11.6-2.8-17.6-2.2-3,.4-5.9.9-8.8,1.6q-2.2.4-5.2.4c.1,1,.3,2.1.4,3.1,0,10.7-8.1,20.3-15.1,27.7-7.7,7.2-15.4,6.6-25.5,6.5-10.6-.4-19.4-4.8-27.4-11.5-4.4-3.4-8.9-4.1-14.4-4q-1.7,0-3.4,0c-1.1,0-2.3,0-3.5,0q-1.7,0-3.5,0c-2.9,0-5.7,0-8.6,0-.3.8-.6,1.6-.9,2.4-2.8,6.8-10.1,11.3-15.8,15.6-2.5,2.1-4.3,4.4-6.3,7-2.8,2-4.7,2.9-8.1,3.5q-3.1,1.2-3.9,3.7c-.6,1.9-1.2,3.9-1.8,5.8-1.5,3.4-3.3,5.2-6,7.8-5,5.1-5.4,9.4-5.5,16.3q0,2.8,1.2,4.9c.8,6.8.2,12.5-4,18-2.8,2.6-5.8,4.8-9,7-.6.5-1.2,1-1.9,1.5-5.2,4-10.2,4.2-16.7,3.9-4.2-.6-7.2-1.9-10.8-4-3.1-1.8-6.4-3.2-9.7-4.6-1.2-.5-2.4-1-3.6-1.5-2-.8-4-1.7-6-2.5-7.6-3.3-12.8-6.1-16.3-13.9q-.2-3.4,0-6c-.6-.2-1.2-.5-1.8-.8-3.6-2-5.7-4.1-7.5-7.9-.9-4.2-.9-8.1-.8-12.3-.6-.3-1.2-.5-1.8-.8-4.2-2.3-7.6-6.7-9.2-11.2-.1-1.3-.2-2.6-.3-3.9-.5-4.4-2.3-6.1-5.7-9.1-2.8-3.1-4.5-6.1-6.2-9.9-2.6-5.4-6-8.6-10.8-12.1-4.4,2-7.7,5-11.4,8.1-6.6,4.7-13.8,4.5-21.6,3.9-9.1-1.7-15.2-8.6-20.5-15.8-2.4-3.6-4.2-7.5-6-11.5-.4-.8-.8-1.7-1.2-2.5-1.7-3.6-3.3-7.2-4.8-10.8-5.9-13.5-19.5-19.9-32.5-25.4-2-.7-4-1.4-6-2-.3,1-.7,2-1,3q-2.2,1.8-4.9,3.6c-.9.6-1.8,1.2-2.7,1.9-5.2,3.2-10.6,2.9-16.5,3.1q-1.5,0-3.1.2c-1,0-1.9,0-2.9.1q-1.3,0-2.7.1t-4.2-1c-1.4,0-2.8.1-4.2.3-13.4.9-20.4-1.4-31.1-9.1-6-4-13-4.2-20-4.6-6.4-.4-9.7-1.5-14.2-6.1-9.2-8.8-22.1-13.3-34.1-17.3-4.8-1.6-7.8-3.7-11.4-7.2q-.8-2-1.1-3.9c-1.3-4.1-3.5-5.5-7.2-7.6-6.5-2.9-12.6-3.3-19.6-2.5-.7.3-1.3.7-2,1-4.7.6-8.1.5-12.3-1.7-3.6-3.1-6.2-5.8-7.7-10.3-.2-3.7-.3-7.4-.4-11-.4-10.3-4.3-17.9-11.7-25-7.3-6.2-15.6-10.2-24.4-14.1-4.9-2.3-7.4-4.5-10.5-8.9-1-3.1-1-5.6-.8-8.9.4-11.7-2-21-6.7-31.7-1.8-4.3-2.7-8.6-3.6-13.2-.9-3.6-2.4-6.8-3.8-10.3-.9-2.7,2.5,6,1.7,3.3-2.1-7.4-4.5-14.4-7.8-21.3-3.5-7.5-4.5-13.8-4.6-22.1,0-1.2,0-2.4,0-3.7,0-2,0-4,0-6,0-4.8-.2-9.6-.3-14.4-.1-3.6-.2-7.3-.3-10.9,0-1.8-.1-3.5-.2-5.3-.5-12.7,1.6-20.8,8.7-31.4,3.9-6.3.9-25,1.8-32.2,1.1-8.7,2.9-14.3,8-21.6,3.4-5.6,5.1-11.6,6.9-17.8q1.1-3.6,2.1-4.6c.4-1.8.7-3.6,1-5.4.2-1.1.4-2.2.6-3.3.4-2.9.5-5.8.6-8.8.5-6,3.1-10.2,6.1-15.3,2.5-4.9,3.7-9.9,4.7-15.3h2c.6-10.3,1.1-20.7,1.2-31,0-.7,0-1.5,0-2.2,0-4.6-.8-7-3.3-10.8-.9-4.9-.6-8.9,1.6-13.3.8-.9,1.6-1.8,2.4-2.7.8-.9,1.6-1.9,2.5-2.9,4.5-3.5,10.1-2.9,15.5-2.1Z"/>
  <path class="st15" d="M575.8,576.4c.3,1,.7,2,1,3-1,.8-2,1.7-3,2.6-1.3,1.1-2.7,2.3-4,3.4q-1,.8-2,1.7c-3.4,2.9-6.6,5.9-9.7,9.2-2.6,2.7-4.4,4-8.3,4.1l3-3c.7-.7,1.4-1.4,2.1-2.2,5.8-5.8,12.2-11.1,18.3-16.5.9-.8,1.7-1.5,2.5-2.3Z"/>
  <path class="st17" d="M874.8,153.4l2,1q-.7.7-1.5,1.3c-2.2,2-4.3,4-6.5,6-.8.7-1.5,1.4-2.3,2.1-.7.7-1.4,1.3-2.2,2q-1,.9-2,1.9t-2.6,3.6l-2-1c4.4-7.2,9.8-12.6,17-17Z"/>
  <path class="st2" d="M989.8,162.4"/>
  <path class="st8" d="M114.8,34.4c1,.3,2,.7,3,1-.6,0-1.2.2-1.9.2q-2.3.5-3,2.5c-2,3.9-5.4,6.7-9.5,8.1-.5,0-1.1.1-1.6.2l1-3c1.3-.7,2.7-1.3,4-2,1.7-1.6,3.4-3.3,5-5,1-.7,2-1.3,3-2Z"/>
  <path class="st20" d="M879.8,428.4c.3,1,.7,2,1,3"/>
  <path class="st7" d="M941.8,71.4l2,1q-1.1,1.2-2.3,2.4c-3.4,4-4.5,8.6-5.7,13.6h-2c1.5-6.9,2.9-11.9,8-17Z"/>
  <path class="st6" d="M854.8,561.4c1.1,1,2.3,1.9,3.4,2.9.6.5,1.3,1.1,1.9,1.6q1.6,1.5,2.6,3.5-2.4.2-5,0c-1.9-2.9-2.5-4.6-3-8Z"/>
  <path class="st0" d="M846.8,496.4l2,4q-1,1.5-2,3t-.6,4.2c-.1,1.3-.2,2.5-.4,3.8-.7-.7-1.3-1.3-2-2,.4-4.6,1.4-8.7,3-13Z"/>
  <path class="st22" d="M672.8,569.4l1,4q-1.4,1.9-3.4,3.8c-.7.6-1.3,1.2-2,1.9q-.8.7-1.6,1.4c-.7-.3-1.3-.7-2-1,2.6-3.3,5.3-6.6,8-10Z"/>
  <path class="st18" d="M573.5,564.8c-.6.4-1.3.9-1.9,1.3"/>
  <path class="st1" d="M72.8,62.4h1q1.5,14.8-1,21h-1c.3-6.9.7-13.9,1-21Z"/>
  <path class="st10" d="M533.8,597.4"/>
  <path class="st10" d="M543.8,591.4"/>
  <path class="st5" d="M575.8,576.4c.3,1,.7,2,1,3-2.3,2-4.6,4-7,6q0-3,1.3-4.6c.6-.5,1.1-1,1.7-1.6.6-.5,1.1-1.1,1.7-1.6q.6-.6,1.3-1.2Z"/>
  <path class="st11" d="M869.8,458.4l2,1c-2.6,2.6-5.3,5.3-8,8,0-3.9,1.4-5.1,4-8l2-1Z"/>
  <path class="st14" d="M874.8,153.4l2,1"/>
  <path class="st9" d="M77.8,33.4c.3,1,.7,2,1,3-2.7,1.7-5,3-8,4q3.1-7,7-7Z"/>
  <path class="st13" d="M973.8,249.4l-4,8h-2c.6-2.4,1.3-4.7,2-7q2-1,4-1Z"/>
  <path class="st12" d="M810.8,194.4c-1.3,2.9-2.6,5-5,7h-2"/>
  <path class="st19" d="M341.8,520.5c-.7-.5-1.5-1.1-2.2-1.7-.6-.5-1.2-.9-1.8-1.4v-1"/>
  <path class="st21" d="M882.8,443.4l1,2c-1.9,4-2.9,4.9-7,7,2-3,4-5.9,6-9Z"/>
  <path class="st3" d="M117.8,45.4h2l-3,6h-2c-.3,1-.7,2-1,3,.5-3.8,1.4-6.2,4-9Z"/>
  <path class="st16" d="M937.8,271.4c-.6.4-1.2.8-1.9,1.2-2.2,1.8-3.1,3.2-4.1,5.8v-7c2.5-1.2,3.4-.8,6,0Z"/>
</svg>